<?xml version="1.0" encoding="UTF-8" standalone="no"?>
<!-- Created with Inkscape (http://www.inkscape.org/) -->
<svg xmlns:dc="http://purl.org/dc/elements/1.1/" xmlns:cc="http://web.resource.org/cc/" xmlns:rdf="http://www.w3.org/1999/02/22-rdf-syntax-ns#" xmlns:svg="http://www.w3.org/2000/svg" xmlns="http://www.w3.org/2000/svg" xmlns:xlink="http://www.w3.org/1999/xlink" xmlns:sodipodi="http://inkscape.sourceforge.net/DTD/sodipodi-0.dtd" xmlns:inkscape="http://www.inkscape.org/namespaces/inkscape" width="640" height="500" id="svg2" sodipodi:version="0.32" inkscape:version="0.43" sodipodi:docbase="/home/tigert/Desktop" sodipodi:docname="telepathy.svg" version="1.0">
  <defs id="defs4">
    <linearGradient inkscape:collect="always" id="linearGradient2299">
      <stop style="stop-color:#729fcf" offset="0" id="stop2301"/>
      <stop style="stop-color:#204a87" offset="1" id="stop2303"/>
    </linearGradient>
    <linearGradient inkscape:collect="always" id="linearGradient2277">
      <stop style="stop-color:#729fcf" offset="0" id="stop2279"/>
      <stop style="stop-color:#204a87" offset="1" id="stop2281"/>
    </linearGradient>
    <linearGradient inkscape:collect="always" id="linearGradient2248">
      <stop style="stop-color:#729fcf" offset="0" id="stop2250"/>
      <stop style="stop-color:#204a87" offset="1" id="stop2252"/>
    </linearGradient>
    <linearGradient inkscape:collect="always" id="linearGradient2316">
      <stop style="stop-color:#000000;stop-opacity:1;" offset="0" id="stop2318"/>
      <stop style="stop-color:#000000;stop-opacity:0;" offset="1" id="stop2320"/>
    </linearGradient>
    <radialGradient inkscape:collect="always" xlink:href="#linearGradient2316" id="radialGradient1428" gradientUnits="userSpaceOnUse" gradientTransform="matrix(1,0,0,0.446154,5.895284e-14,218.1391)" cx="37.5" cy="393.86218" fx="37.5" fy="393.86218" r="32.5"/>
    <radialGradient inkscape:collect="always" xlink:href="#linearGradient2316" id="radialGradient1430" gradientUnits="userSpaceOnUse" gradientTransform="matrix(1,0,0,0.446154,-1.178571e-14,218.1391)" cx="37.5" cy="393.86218" fx="37.5" fy="393.86218" r="32.5"/>
    <radialGradient inkscape:collect="always" xlink:href="#linearGradient2248" id="radialGradient1432" gradientUnits="userSpaceOnUse" gradientTransform="matrix(1.868658,-0.148746,0.168018,2.110777,-257.031,-963.2931)" cx="152.6485" cy="532.39001" fx="152.6485" fy="532.39001" r="29.863501"/>
    <radialGradient inkscape:collect="always" xlink:href="#linearGradient2248" id="radialGradient1434" gradientUnits="userSpaceOnUse" gradientTransform="matrix(1.550415,-4.746643e-6,6.036308e-6,1.971663,-152.6655,-900.8159)" cx="209.66589" cy="518.98993" fx="209.66589" fy="518.98993" r="21.839567"/>
    <linearGradient inkscape:collect="always" xlink:href="#linearGradient2277" id="linearGradient1436" gradientUnits="userSpaceOnUse" gradientTransform="translate(-35,-392)" x1="156.27637" y1="519.47235" x2="168.11945" y2="588.41528"/>
    <linearGradient inkscape:collect="always" xlink:href="#linearGradient2299" id="linearGradient1438" gradientUnits="userSpaceOnUse" gradientTransform="translate(-35,-392)" x1="210.31523" y1="513.20483" x2="218.00374" y2="561.11133"/>
    <radialGradient inkscape:collect="always" xlink:href="#linearGradient2316" id="radialGradient1455" gradientUnits="userSpaceOnUse" gradientTransform="matrix(1,0,0,0.446154,-2.647882e-14,218.1391)" cx="37.5" cy="393.86218" fx="37.5" fy="393.86218" r="32.5"/>
    <radialGradient inkscape:collect="always" xlink:href="#linearGradient2316" id="radialGradient1457" gradientUnits="userSpaceOnUse" gradientTransform="matrix(1,0,0,0.446154,-2.057373e-15,218.1391)" cx="37.5" cy="393.86218" fx="37.5" fy="393.86218" r="32.5"/>
    <radialGradient inkscape:collect="always" xlink:href="#linearGradient2248" id="radialGradient1459" gradientUnits="userSpaceOnUse" gradientTransform="matrix(1.868658,-0.148746,0.168018,2.110777,-257.031,-963.2931)" cx="152.6485" cy="532.39001" fx="152.6485" fy="532.39001" r="29.863501"/>
    <radialGradient inkscape:collect="always" xlink:href="#linearGradient2248" id="radialGradient1461" gradientUnits="userSpaceOnUse" gradientTransform="matrix(1.550415,-4.746643e-6,6.036308e-6,1.971663,-152.6655,-900.8159)" cx="209.66589" cy="518.98993" fx="209.66589" fy="518.98993" r="21.839567"/>
    <linearGradient inkscape:collect="always" xlink:href="#linearGradient2277" id="linearGradient1463" gradientUnits="userSpaceOnUse" gradientTransform="translate(-35,-392)" x1="156.27637" y1="519.47235" x2="168.11945" y2="588.41528"/>
    <linearGradient inkscape:collect="always" xlink:href="#linearGradient2299" id="linearGradient1465" gradientUnits="userSpaceOnUse" gradientTransform="translate(-35,-392)" x1="210.31523" y1="513.20483" x2="218.00374" y2="561.11133"/>
  </defs>
  <sodipodi:namedview id="base" pagecolor="#ffffff" bordercolor="#666666" borderopacity="1.0" inkscape:pageopacity="0.0" inkscape:pageshadow="2" inkscape:zoom="1" inkscape:cx="391.86649" inkscape:cy="258.28661" inkscape:document-units="px" inkscape:current-layer="layer1" fill="#edd400" stroke="#edd400" inkscape:window-width="1014" inkscape:window-height="693" inkscape:window-x="0" inkscape:window-y="25"/>
  <metadata id="metadata7">
    <rdf:RDF>
      <cc:Work rdf:about="">
        <dc:format>image/svg+xml</dc:format>
        <dc:type rdf:resource="http://purl.org/dc/dcmitype/StillImage"/>
      </cc:Work>
    </rdf:RDF>
  </metadata>
  <g inkscape:label="Layer 1" inkscape:groupmode="layer" id="layer1">
    <g id="g1440" transform="translate(73,24)" inkscape:export-filename="/home/tigert/Desktop/telepathy-logo-horiz.png" inkscape:export-xdpi="90" inkscape:export-ydpi="90">
      <path id="text2280" d="M 164.53405,77.084456 L 157.29641,77.084456 C 155.71728,77.084496 154.46714,76.536186 153.54599,75.439536 C 152.71256,74.518426 152.29585,73.356016 152.29585,71.952306 C 152.29585,70.592556 152.71256,69.408206 153.54599,68.399276 C 154.37941,67.390446 155.54182,66.886006 157.03322,66.885956 L 182.62816,66.885956 C 184.38271,66.886006 185.74251,67.412376 186.70756,68.465076 C 187.67255,69.474006 188.15506,70.680276 188.15509,72.083896 C 188.15506,73.443746 187.71641,74.584216 186.83916,75.505336 C 185.83024,76.558116 184.44851,77.084496 182.69396,77.084456 L 175.25893,77.084456 L 175.25893,109.45647 C 175.2589,111.47424 174.7106,113.03143 173.61401,114.12804 C 172.56124,115.22466 171.3111,115.77296 169.86359,115.77296 C 168.41604,115.77296 167.16591,115.24659 166.11317,114.19384 C 165.06041,113.14109 164.53404,111.67163 164.53405,109.78546 L 164.53405,77.084456 M 182.49554,97.086676 C 182.49554,91.077256 184.42558,86.296036 188.28566,82.742976 C 191.75095,79.540906 195.98387,77.939846 200.98444,77.939816 C 205.72178,77.939846 209.71345,79.409306 212.95945,82.348196 C 216.55631,85.594206 218.35475,89.980646 218.35479,95.507556 C 218.35475,98.797406 217.25814,100.44233 215.06495,100.44231 L 194.27317,100.44231 C 195.45749,104.91651 198.26482,107.15359 202.69515,107.15359 C 204.27425,107.15359 205.85337,106.84654 207.43252,106.23243 C 208.83616,105.70607 209.88891,105.09196 210.59077,104.39012 C 211.59962,103.33738 212.69623,102.81101 213.8806,102.811 C 215.02105,102.81101 216.008,103.27159 216.84146,104.19273 C 217.67485,105.1139 218.09156,106.23244 218.0916,107.54837 C 218.09156,109.69773 216.92915,111.54004 214.60437,113.0753 C 211.18291,115.35625 207.32283,116.49673 203.02414,116.49673 C 197.54106,116.49673 192.82563,114.78601 188.87783,111.36458 C 184.62297,107.6361 182.49554,102.87681 182.49554,97.086676 M 194.00998,92.875686 L 207.95889,92.875686 C 207.4325,90.901806 206.48941,89.344616 205.12963,88.204106 C 203.94527,87.195256 202.58547,86.690816 201.05023,86.690786 C 199.47109,86.690816 198.06743,87.217186 196.83924,88.269906 C 195.47943,89.366546 194.53634,90.901806 194.00998,92.875686 M 223.233,72.873466 C 223.233,70.943466 223.78131,69.430146 224.87792,68.333486 C 225.84294,67.368516 227.04921,66.886006 228.49674,66.885956 C 229.94426,66.886006 231.1944,67.390446 232.24716,68.399276 C 233.2999,69.364346 233.82627,70.658346 233.82628,72.281286 L 233.82628,110.11444 C 233.82627,111.91289 233.32183,113.31655 232.31295,114.32543 C 231.34793,115.29045 230.16359,115.77296 228.75993,115.77296 C 227.26853,115.77296 225.97453,115.26852 224.87792,114.25964 C 223.78131,113.20689 223.233,111.82516 223.233,110.11444 L 223.233,72.873466 M 239.16816,97.086676 C 239.16816,91.077256 241.09819,86.296036 244.95827,82.742976 C 248.42356,79.540906 252.65648,77.939846 257.65705,77.939816 C 262.3944,77.939846 266.38606,79.409306 269.63206,82.348196 C 273.22892,85.594206 275.02736,89.980646 275.0274,95.507556 C 275.02736,98.797406 273.93075,100.44233 271.73756,100.44231 L 250.94578,100.44231 C 252.13011,104.91651 254.93744,107.15359 259.36777,107.15359 C 260.94687,107.15359 262.52599,106.84654 264.10514,106.23243 C 265.50877,105.70607 266.56152,105.09196 267.26338,104.39012 C 268.27224,103.33738 269.36885,102.81101 270.55322,102.811 C 271.69366,102.81101 272.68062,103.27159 273.51407,104.19273 C 274.34747,105.1139 274.76418,106.23244 274.76421,107.54837 C 274.76418,109.69773 273.60177,111.54004 271.27698,113.0753 C 267.85552,115.35625 263.99545,116.49673 259.69675,116.49673 C 254.21367,116.49673 249.49824,114.78601 245.55044,111.36458 C 241.29558,107.6361 239.16816,102.87681 239.16816,97.086676 M 250.68259,92.875686 L 264.63151,92.875686 C 264.10511,90.901806 263.16202,89.344616 261.80225,88.204106 C 260.61789,87.195256 259.25809,86.690816 257.72285,86.690786 C 256.14371,86.690816 254.74005,87.217186 253.51185,88.269906 C 252.15204,89.366546 251.20896,90.901806 250.68259,92.875686 M 279.90561,83.006166 C 279.90561,81.339346 280.43199,80.045346 281.48474,79.124156 C 282.40589,78.290766 283.54637,77.874056 284.90617,77.874016 C 286.26596,77.874056 287.4503,78.290766 288.4592,79.124156 C 289.51193,79.957616 290.03831,81.054226 290.03832,82.413996 C 292.67018,79.475106 295.71876,78.005646 299.18407,78.005606 C 304.1846,78.005646 308.22013,80.111146 311.29068,84.322096 C 314.09797,88.182206 315.50163,92.766046 315.50167,98.073626 C 315.50163,103.16193 314.16377,107.39485 311.48807,110.77241 C 308.54912,114.58862 304.44779,116.49673 299.18407,116.49673 C 296.06967,116.49673 293.19655,115.61944 290.56469,113.86486 L 290.56469,125.97146 C 290.56468,127.55057 290.01638,128.80071 288.91977,129.72188 C 287.82315,130.68688 286.52915,131.16939 285.03776,131.16941 C 283.6341,131.16939 282.42782,130.68688 281.41894,129.72188 C 280.41006,128.75685 279.90561,127.35318 279.90561,125.51089 L 279.90561,83.006166 M 298.19712,88.730486 C 295.78455,88.730516 293.85452,89.651666 292.407,91.493946 C 291.13492,93.116956 290.49889,95.134726 290.4989,97.547256 C 290.49889,99.959816 291.15685,101.99952 292.4728,103.66636 C 293.87645,105.50868 295.78455,106.42983 298.19712,106.42982 C 300.43419,106.42983 302.2107,105.53061 303.52666,103.73215 C 304.66711,102.15304 305.23735,100.17914 305.23737,97.810436 C 305.23735,95.354046 304.64518,93.270486 303.46086,91.559746 C 302.1449,89.673596 300.39032,88.730516 298.19712,88.730486 M 337.2331,77.874016 C 338.46129,77.874056 339.97462,78.290766 341.77308,79.124156 C 343.35218,79.869886 344.69005,80.725246 345.78668,81.690226 C 346.66395,79.146126 348.37466,77.874056 350.91883,77.874016 C 352.2786,77.874056 353.46294,78.356566 354.47186,79.321546 C 355.48071,80.286596 355.98515,81.624466 355.98519,83.335146 L 355.98519,113.0095 C 355.98515,114.14998 355.45878,115.02727 354.40606,115.64137 C 353.39715,116.25547 352.16894,116.56252 350.72144,116.56252 C 349.31775,116.56252 348.08954,116.25547 347.03682,115.64137 C 345.98405,115.02727 345.45768,114.17191 345.4577,113.0753 C 342.73808,115.35625 339.79916,116.49673 336.64093,116.49673 C 331.50877,116.49673 327.42938,114.47896 324.40273,110.44342 C 321.63927,106.80268 320.25754,102.37237 320.25754,97.152476 C 320.25754,91.932616 321.6612,87.524236 324.46853,83.927316 C 327.5829,79.891816 331.83776,77.874056 337.2331,77.874016 M 338.08846,88.533096 C 335.6759,88.533126 333.76779,89.410406 332.36414,91.164966 C 331.13593,92.700246 330.52182,94.630286 330.52183,96.955086 C 330.52182,99.367646 331.17979,101.45121 332.49574,103.20578 C 333.94325,105.09196 335.87329,106.03505 338.28585,106.03504 C 340.56679,106.03505 342.38716,105.13583 343.74698,103.33737 C 344.97517,101.67053 345.58927,99.652766 345.58929,97.284066 C 345.58927,94.915406 344.9313,92.875706 343.61539,91.164966 C 342.29943,89.410406 340.45713,88.533126 338.08846,88.533096 M 365.9205,88.862076 C 364.47297,88.905966 363.33249,88.423456 362.49907,87.414546 C 361.75337,86.537286 361.38052,85.440676 361.38052,84.124706 C 361.38052,82.764946 361.75337,81.602536 362.49907,80.637476 C 363.24476,79.628636 364.25364,79.146126 365.52572,79.189956 L 369.21034,79.189956 C 369.21033,78.005646 369.1884,75.702766 369.14454,72.281286 C 369.14453,70.614486 369.69284,69.276616 370.78946,68.267686 C 371.75447,67.434306 372.96074,67.017596 374.40828,67.017546 C 375.7242,67.017596 376.86468,67.434306 377.82972,68.267686 C 378.83858,69.057296 379.34302,70.197776 379.34304,71.689116 L 379.34304,79.189956 L 383.61983,79.189956 C 385.28666,79.189986 386.62453,79.716366 387.63344,80.769076 C 388.5107,81.690266 388.94934,82.808806 388.94937,84.124706 C 388.94934,85.396816 388.5107,86.471486 387.63344,87.348756 C 386.71226,88.357666 385.44019,88.862106 383.81722,88.862076 L 379.86942,88.796286 L 379.86942,110.44342 C 379.8694,112.15414 379.34302,113.47008 378.29029,114.39123 C 377.23753,115.31239 375.98739,115.77296 374.53988,115.77296 C 373.09234,115.77296 371.8422,115.35625 370.78946,114.52282 C 369.7367,113.64554 369.21033,112.4612 369.21034,110.9698 L 369.21034,88.796286 C 368.5085,88.796306 367.41189,88.818236 365.9205,88.862076 M 392.7368,71.820716 C 392.7368,70.285496 393.30704,69.057296 394.44752,68.136096 C 395.4564,67.302716 396.6846,66.886006 398.13213,66.885956 C 399.57966,66.886006 400.80786,67.324646 401.81675,68.201886 C 402.86949,69.079226 403.39587,70.307436 403.39588,71.886506 L 403.39588,80.769076 C 405.80841,78.795206 408.74733,77.808256 412.21264,77.808216 C 415.76565,77.808256 418.7923,78.817136 421.2926,80.834876 C 424.05603,83.115856 425.43776,86.142506 425.4378,89.914826 L 425.4378,110.70661 C 425.43776,112.28574 424.93332,113.51394 423.92447,114.39123 C 422.91556,115.26852 421.70928,115.70717 420.30565,115.70717 C 418.94582,115.70717 417.76148,115.29045 416.75262,114.45703 C 415.74372,113.57974 415.23927,112.3954 415.2393,110.904 L 415.2393,93.138866 C 415.23927,91.340446 414.55937,89.892916 413.1996,88.796286 C 412.01524,87.787426 410.56771,87.282986 408.85701,87.282956 C 407.3656,87.282986 406.11546,87.721626 405.10659,88.598886 C 403.9661,89.563936 403.39587,90.879866 403.39588,92.546696 L 403.39588,110.70661 C 403.39587,112.28574 402.86949,113.51394 401.81675,114.39123 C 400.764,115.26852 399.49193,115.70717 398.00054,115.70717 C 396.59687,115.70717 395.36867,115.26852 394.31592,114.39123 C 393.26317,113.51394 392.7368,112.28574 392.7368,110.70661 L 392.7368,71.820716 M 440.84863,83.664136 L 446.44136,99.652746 L 452.62625,84.256306 C 453.98603,80.878766 456.02573,79.189986 458.74535,79.189956 C 459.97353,79.189986 461.00435,79.650566 461.8378,80.571686 C 462.71506,81.492876 463.15371,82.743006 463.15374,84.322096 C 463.15371,85.638066 462.84665,87.041726 462.23258,88.533096 L 446.44136,126.76102 C 445.21314,129.7438 443.45856,131.23519 441.17762,131.23521 C 439.90553,131.23519 438.76506,130.73075 437.75618,129.72188 C 436.79116,128.75685 436.30865,127.59444 436.30865,126.23465 C 436.30865,125.62054 436.41831,125.02837 436.63764,124.45814 C 437.77811,121.38762 439.2695,117.54947 441.11182,112.9437 C 438.34835,106.01312 435.08044,97.700796 431.3081,88.006716 C 430.78172,86.646946 430.51854,85.396816 430.51854,84.256306 C 430.51854,82.677216 431.00105,81.427076 431.96607,80.505886 C 432.79949,79.628636 433.87417,79.189986 435.19011,79.189956 C 437.9097,79.189986 439.79587,80.681376 440.84863,83.664136" style="font-size:65.79677582px;font-style:normal;font-variant:normal;font-weight:bold;font-stretch:normal;text-align:start;line-height:125%;writing-mode:lr-tb;text-anchor:start;fill:#555753;fill-opacity:1;stroke:none;stroke-width:1px;stroke-linecap:butt;stroke-linejoin:miter;stroke-opacity:1;font-family:MgOpen Modata"/>
      <g transform="translate(-70.71068,-65.05382)" id="g1350">
        <path transform="matrix(0.553846,0,0,0.769231,155.2308,-139.4549)" d="M 70 393.86218 A 32.5 14.5 0 1 1  5,393.86218 A 32.5 14.5 0 1 1  70 393.86218 z" sodipodi:ry="14.5" sodipodi:rx="32.5" sodipodi:cy="393.86218" sodipodi:cx="37.5" id="path2324" style="opacity:0.34302326;fill:url(#radialGradient1455);fill-opacity:1;stroke:none;stroke-width:5;stroke-linecap:round;stroke-miterlimit:4;stroke-dasharray:none;stroke-opacity:1" sodipodi:type="arc"/>
        <path sodipodi:type="arc" style="opacity:0.34883722;fill:url(#radialGradient1457);fill-opacity:1;stroke:none;stroke-width:5;stroke-linecap:round;stroke-miterlimit:4;stroke-dasharray:none;stroke-opacity:1" id="path2314" sodipodi:cx="37.5" sodipodi:cy="393.86218" sodipodi:rx="32.5" sodipodi:ry="14.5" d="M 70 393.86218 A 32.5 14.5 0 1 1  5,393.86218 A 32.5 14.5 0 1 1  70 393.86218 z" transform="matrix(0.753846,0,0,1,103.2308,-206)"/>
        <path transform="matrix(0.239488,0,0,0.239488,6.4093,56.699)" d="M 480 225.86218 A 13.5 13.5 0 1 1  453,225.86218 A 13.5 13.5 0 1 1  480 225.86218 z" sodipodi:ry="13.5" sodipodi:rx="13.5" sodipodi:cy="225.86218" sodipodi:cx="466.5" id="path2284" style="fill:#babdb6;stroke:none;stroke-width:3.83500004;stroke-miterlimit:4;stroke-dasharray:none" sodipodi:type="arc"/>
        <path sodipodi:nodetypes="csscsssc" id="path2286" d="M 150.2161,142.69583 C 144.93306,149.11959 157.74053,160.99323 155.32886,164.76875 C 151.71258,170.43013 145.72673,166.37911 146.5107,170.91369 C 147.10639,174.35931 146.90129,177.59442 143.94504,179.55357 C 146.05169,185.93861 138.60199,192.13547 135.06149,192.88614 C 120.89943,195.8888 101.90698,167.7371 98.90432,153.57504 C 95.90165,139.41298 104.95855,125.4822 119.1206,122.47955 C 133.28265,119.47688 147.21343,128.53378 150.2161,142.69583 z " style="fill:url(#radialGradient1459);fill-opacity:1;stroke:#204a87;stroke-width:3;stroke-miterlimit:4;stroke-dasharray:none;stroke-opacity:1"/>
        <path style="fill:url(#radialGradient1461);fill-opacity:1;stroke:#204a87;stroke-width:3;stroke-miterlimit:4;stroke-dasharray:none;stroke-opacity:1" d="M 161.93542,131.68159 C 165.74994,136.31974 156.62403,144.65072 158.36534,147.37677 C 160.97641,151.46447 165.17688,148.78167 164.61083,152.05578 C 164.18072,154.54363 164.32882,156.87948 166.46332,158.29405 C 164.94226,162.90425 170.26698,167.13724 172.82334,167.67925 C 183.04881,169.84727 196.81615,149.76218 198.98416,139.53672 C 201.15218,129.31126 194.61282,119.25279 184.38736,117.08478 C 174.16191,114.91676 164.10344,121.45613 161.93542,131.68159 z " id="path2288" sodipodi:nodetypes="csscsssc"/>
        <path sodipodi:type="arc" style="fill:#babdb6;stroke:none;stroke-width:3.83500004;stroke-miterlimit:4;stroke-dasharray:none" id="path2290" sodipodi:cx="466.5" sodipodi:cy="225.86218" sodipodi:rx="13.5" sodipodi:ry="13.5" d="M 480 225.86218 A 13.5 13.5 0 1 1  453,225.86218 A 13.5 13.5 0 1 1  480 225.86218 z" transform="matrix(0.448469,0,0,0.448469,-80.909,-3.4852)"/>
        <path transform="matrix(0.376714,0,0,0.376714,-29.9988,8.3624)" d="M 480 225.86218 A 13.5 13.5 0 1 1  453,225.86218 A 13.5 13.5 0 1 1  480 225.86218 z" sodipodi:ry="13.5" sodipodi:rx="13.5" sodipodi:cy="225.86218" sodipodi:cx="466.5" id="path2292" style="fill:#babdb6;stroke:none;stroke-width:3.83500004;stroke-miterlimit:4;stroke-dasharray:none" sodipodi:type="arc"/>
        <path sodipodi:type="arc" style="fill:#babdb6;stroke:none;stroke-width:3.83500004;stroke-miterlimit:4;stroke-dasharray:none" id="path2294" sodipodi:cx="466.5" sodipodi:cy="225.86218" sodipodi:rx="13.5" sodipodi:ry="13.5" d="M 480 225.86218 A 13.5 13.5 0 1 1  453,225.86218 A 13.5 13.5 0 1 1  480 225.86218 z" transform="matrix(0.269082,0,0,0.269082,35.2264,38.422)"/>
        <path transform="matrix(0.197327,0,0,0.197327,75.481,66.2218)" d="M 480 225.86218 A 13.5 13.5 0 1 1  453,225.86218 A 13.5 13.5 0 1 1  480 225.86218 z" sodipodi:ry="13.5" sodipodi:rx="13.5" sodipodi:cy="225.86218" sodipodi:cx="466.5" id="path2296" style="fill:#babdb6;stroke:none;stroke-width:3.83500004;stroke-miterlimit:4;stroke-dasharray:none" sodipodi:type="arc"/>
        <path style="opacity:1;fill:none;fill-opacity:1;stroke:url(#linearGradient1463);stroke-width:2;stroke-miterlimit:4;stroke-dasharray:none;stroke-opacity:1" d="M 123.28125,123.9375 C 108.01533,124.16246 96.09738,141.26171 101.5625,155.78125 C 106.70498,169.34648 115.09976,183.17694 128.25,190.0625 C 135.00162,194.17566 144.81961,185.96654 141.5625,178.71875 C 146.27103,177.08945 143.82074,171.72239 144.9375,168.21875 C 146.8342,165.06946 153.71771,167.38783 153.46875,162.65625 C 150.74411,156.2047 144.57132,149.09618 147.96875,141.84375 C 145.2653,131.11182 134.46054,123.15696 123.28125,123.9375 z " id="path2268"/>
        <path style="fill:none;fill-opacity:1;stroke:url(#linearGradient1465);stroke-width:2;stroke-miterlimit:4;stroke-dasharray:none;stroke-opacity:1" d="M 179.75,118.6875 C 172.45096,118.90303 164.83544,124.65883 164.375,131.90625 C 166.6736,137.32257 160.94739,141.95547 160.375,146.71875 C 162.45612,148.7109 167.71064,148.079 166.59375,152.46875 C 165.32221,155.0163 168.12471,156.86409 168.52359,158.40373 C 166.89871,163.94225 174.72741,168.088 178.96875,164.46875 C 188.37541,158.20668 195.59314,147.55282 197.375,136.46875 C 198.06704,126.67227 189.35755,118.04285 179.75,118.6875 z " id="path2291"/>
      </g>
    </g>
    <g id="g1413" transform="translate(-12.6598,-98.2742)" inkscape:export-filename="/home/tigert/Desktop/telepathy-logo-rect.png" inkscape:export-xdpi="90" inkscape:export-ydpi="90">
      <g transform="translate(67.3312,268.7006)" id="g1363">
        <path sodipodi:type="arc" style="opacity:0.34302326;fill:url(#radialGradient1428);fill-opacity:1;stroke:none;stroke-width:5;stroke-linecap:round;stroke-miterlimit:4;stroke-dasharray:none;stroke-opacity:1" id="path1365" sodipodi:cx="37.5" sodipodi:cy="393.86218" sodipodi:rx="32.5" sodipodi:ry="14.5" d="M 70 393.86218 A 32.5 14.5 0 1 1  5,393.86218 A 32.5 14.5 0 1 1  70 393.86218 z" transform="matrix(0.553846,0,0,0.769231,155.2308,-139.4549)"/>
        <path transform="matrix(0.753846,0,0,1,103.2308,-206)" d="M 70 393.86218 A 32.5 14.5 0 1 1  5,393.86218 A 32.5 14.5 0 1 1  70 393.86218 z" sodipodi:ry="14.5" sodipodi:rx="32.5" sodipodi:cy="393.86218" sodipodi:cx="37.5" id="path1367" style="opacity:0.34883722;fill:url(#radialGradient1430);fill-opacity:1;stroke:none;stroke-width:5;stroke-linecap:round;stroke-miterlimit:4;stroke-dasharray:none;stroke-opacity:1" sodipodi:type="arc"/>
        <path sodipodi:type="arc" style="fill:#babdb6;stroke:none;stroke-width:3.83500004;stroke-miterlimit:4;stroke-dasharray:none" id="path1369" sodipodi:cx="466.5" sodipodi:cy="225.86218" sodipodi:rx="13.5" sodipodi:ry="13.5" d="M 480 225.86218 A 13.5 13.5 0 1 1  453,225.86218 A 13.5 13.5 0 1 1  480 225.86218 z" transform="matrix(0.239488,0,0,0.239488,6.4093,56.699)"/>
        <path style="fill:url(#radialGradient1432);fill-opacity:1;stroke:#204a87;stroke-width:3;stroke-miterlimit:4;stroke-dasharray:none;stroke-opacity:1" d="M 150.2161,142.69583 C 144.93306,149.11959 157.74053,160.99323 155.32886,164.76875 C 151.71258,170.43013 145.72673,166.37911 146.5107,170.91369 C 147.10639,174.35931 146.90129,177.59442 143.94504,179.55357 C 146.05169,185.93861 138.60199,192.13547 135.06149,192.88614 C 120.89943,195.8888 101.90698,167.7371 98.90432,153.57504 C 95.90165,139.41298 104.95855,125.4822 119.1206,122.47955 C 133.28265,119.47688 147.21343,128.53378 150.2161,142.69583 z " id="path1371" sodipodi:nodetypes="csscsssc"/>
        <path sodipodi:nodetypes="csscsssc" id="path1373" d="M 161.93542,131.68159 C 165.74994,136.31974 156.62403,144.65072 158.36534,147.37677 C 160.97641,151.46447 165.17688,148.78167 164.61083,152.05578 C 164.18072,154.54363 164.32882,156.87948 166.46332,158.29405 C 164.94226,162.90425 170.26698,167.13724 172.82334,167.67925 C 183.04881,169.84727 196.81615,149.76218 198.98416,139.53672 C 201.15218,129.31126 194.61282,119.25279 184.38736,117.08478 C 174.16191,114.91676 164.10344,121.45613 161.93542,131.68159 z " style="fill:url(#radialGradient1434);fill-opacity:1;stroke:#204a87;stroke-width:3;stroke-miterlimit:4;stroke-dasharray:none;stroke-opacity:1"/>
        <path transform="matrix(0.448469,0,0,0.448469,-80.909,-3.4852)" d="M 480 225.86218 A 13.5 13.5 0 1 1  453,225.86218 A 13.5 13.5 0 1 1  480 225.86218 z" sodipodi:ry="13.5" sodipodi:rx="13.5" sodipodi:cy="225.86218" sodipodi:cx="466.5" id="path1375" style="fill:#babdb6;stroke:none;stroke-width:3.83500004;stroke-miterlimit:4;stroke-dasharray:none" sodipodi:type="arc"/>
        <path sodipodi:type="arc" style="fill:#babdb6;stroke:none;stroke-width:3.83500004;stroke-miterlimit:4;stroke-dasharray:none" id="path1377" sodipodi:cx="466.5" sodipodi:cy="225.86218" sodipodi:rx="13.5" sodipodi:ry="13.5" d="M 480 225.86218 A 13.5 13.5 0 1 1  453,225.86218 A 13.5 13.5 0 1 1  480 225.86218 z" transform="matrix(0.376714,0,0,0.376714,-29.9988,8.3624)"/>
        <path transform="matrix(0.269082,0,0,0.269082,35.2264,38.422)" d="M 480 225.86218 A 13.5 13.5 0 1 1  453,225.86218 A 13.5 13.5 0 1 1  480 225.86218 z" sodipodi:ry="13.5" sodipodi:rx="13.5" sodipodi:cy="225.86218" sodipodi:cx="466.5" id="path1379" style="fill:#babdb6;stroke:none;stroke-width:3.83500004;stroke-miterlimit:4;stroke-dasharray:none" sodipodi:type="arc"/>
        <path sodipodi:type="arc" style="fill:#babdb6;stroke:none;stroke-width:3.83500004;stroke-miterlimit:4;stroke-dasharray:none" id="path1381" sodipodi:cx="466.5" sodipodi:cy="225.86218" sodipodi:rx="13.5" sodipodi:ry="13.5" d="M 480 225.86218 A 13.5 13.5 0 1 1  453,225.86218 A 13.5 13.5 0 1 1  480 225.86218 z" transform="matrix(0.197327,0,0,0.197327,75.481,66.2218)"/>
        <path id="path1383" d="M 123.28125,123.9375 C 108.01533,124.16246 96.09738,141.26171 101.5625,155.78125 C 106.70498,169.34648 115.09976,183.17694 128.25,190.0625 C 135.00162,194.17566 144.81961,185.96654 141.5625,178.71875 C 146.27103,177.08945 143.82074,171.72239 144.9375,168.21875 C 146.8342,165.06946 153.71771,167.38783 153.46875,162.65625 C 150.74411,156.2047 144.57132,149.09618 147.96875,141.84375 C 145.2653,131.11182 134.46054,123.15696 123.28125,123.9375 z " style="opacity:1;fill:none;fill-opacity:1;stroke:url(#linearGradient1436);stroke-width:2;stroke-miterlimit:4;stroke-dasharray:none;stroke-opacity:1"/>
        <path id="path1385" d="M 179.75,118.6875 C 172.45096,118.90303 164.83544,124.65883 164.375,131.90625 C 166.6736,137.32257 160.94739,141.95547 160.375,146.71875 C 162.45612,148.7109 167.71064,148.079 166.59375,152.46875 C 165.32221,155.0163 168.12471,156.86409 168.52359,158.40373 C 166.89871,163.94225 174.72741,168.088 178.96875,164.46875 C 188.37541,158.20668 195.59314,147.55282 197.375,136.46875 C 198.06704,126.67227 189.35755,118.04285 179.75,118.6875 z " style="fill:none;fill-opacity:1;stroke:url(#linearGradient1438);stroke-width:2;stroke-miterlimit:4;stroke-dasharray:none;stroke-opacity:1"/>
      </g>
      <path style="font-size:65.79677582px;font-style:normal;font-variant:normal;font-weight:bold;font-stretch:normal;text-align:start;line-height:125%;writing-mode:lr-tb;text-anchor:start;fill:#555753;fill-opacity:1;stroke:none;stroke-width:1px;stroke-linecap:butt;stroke-linejoin:miter;stroke-opacity:1;font-family:MgOpen Modata" d="M 156.06764,481.21609 L 153.02845,481.21609 C 152.36535,481.2161 151.8404,480.98586 151.45359,480.52536 C 151.10363,480.13857 150.92864,479.65046 150.92864,479.06102 C 150.92864,478.49004 151.10363,477.99272 151.45359,477.56906 C 151.80355,477.14543 152.29167,476.93361 152.91793,476.93359 L 163.66562,476.93359 C 164.40238,476.93361 164.97339,477.15464 165.37862,477.59669 C 165.78383,478.02035 165.98645,478.52687 165.98646,479.11628 C 165.98645,479.6873 165.80226,480.1662 165.43388,480.55299 C 165.01022,480.99507 164.43001,481.2161 163.69325,481.21609 L 160.57118,481.21609 L 160.57118,494.80957 C 160.57116,495.65686 160.34092,496.31075 159.88045,496.77124 C 159.43838,497.23172 158.91343,497.46196 158.3056,497.46196 C 157.69774,497.46196 157.17279,497.24093 156.73073,496.79887 C 156.28866,496.3568 156.06763,495.73975 156.06764,494.94771 L 156.06764,481.21609 M 163.60993,489.61531 C 163.60993,487.09187 164.42039,485.08417 166.04129,483.59218 C 167.49642,482.24759 169.27389,481.57527 171.37369,481.57526 C 173.36297,481.57527 175.03913,482.19232 176.40217,483.42641 C 177.91255,484.78945 178.66774,486.63139 178.66776,488.95222 C 178.66774,490.33367 178.20726,491.0244 177.2863,491.02439 L 168.55554,491.02439 C 169.05284,492.90317 170.23169,493.84255 172.09205,493.84255 C 172.75514,493.84255 173.41823,493.71362 174.08134,493.45575 C 174.67075,493.23472 175.11281,492.97685 175.40753,492.68213 C 175.83117,492.24007 176.29165,492.01904 176.78898,492.01904 C 177.26787,492.01904 177.68231,492.21245 178.03228,492.59925 C 178.38225,492.98606 178.55722,493.45575 178.55725,494.00833 C 178.55722,494.91088 178.06911,495.68449 177.0929,496.32917 C 175.65618,497.28697 174.03528,497.76588 172.23019,497.76588 C 169.92777,497.76588 167.94768,497.04753 166.28995,495.61082 C 164.50327,494.04517 163.60993,492.04667 163.60993,489.61531 M 168.44502,487.84706 L 174.30237,487.84706 C 174.08133,487.0182 173.68531,486.3643 173.11432,485.8854 C 172.61699,485.46176 172.046,485.24994 171.40132,485.24992 C 170.73822,485.24994 170.1488,485.47097 169.63307,485.91303 C 169.06206,486.37352 168.66605,487.0182 168.44502,487.84706 M 180.71619,479.44783 C 180.71619,478.63739 180.94644,478.00194 181.40692,477.54143 C 181.81214,477.13622 182.31867,476.93361 182.92651,476.93359 C 183.53435,476.93361 184.0593,477.14543 184.50137,477.56906 C 184.94343,477.9743 185.16446,478.51767 185.16446,479.19917 L 185.16446,495.08586 C 185.16446,495.84105 184.95264,496.43048 184.52899,496.85412 C 184.12377,497.25934 183.62645,497.46196 183.03703,497.46196 C 182.41077,497.46196 181.8674,497.25013 181.40692,496.8265 C 180.94644,496.38443 180.71619,495.80421 180.71619,495.08586 L 180.71619,479.44783 M 187.4076,489.61531 C 187.4076,487.09187 188.21804,485.08417 189.83895,483.59218 C 191.29407,482.24759 193.07154,481.57527 195.17135,481.57526 C 197.16063,481.57527 198.8368,482.19232 200.19984,483.42641 C 201.71021,484.78945 202.46541,486.63139 202.46542,488.95222 C 202.46541,490.33367 202.00493,491.0244 201.08397,491.02439 L 192.35319,491.02439 C 192.85051,492.90317 194.02936,493.84255 195.88972,493.84255 C 196.55279,493.84255 197.2159,493.71362 197.87901,493.45575 C 198.46841,493.23472 198.91047,492.97685 199.2052,492.68213 C 199.62884,492.24007 200.08932,492.01904 200.58665,492.01904 C 201.06553,492.01904 201.47998,492.21245 201.82995,492.59925 C 202.17991,492.98606 202.35489,493.45575 202.3549,494.00833 C 202.35489,494.91088 201.86678,495.68449 200.89056,496.32917 C 199.45385,497.28697 197.83294,497.76588 196.02786,497.76588 C 193.72542,497.76588 191.74535,497.04753 190.08761,495.61082 C 188.30093,494.04517 187.4076,492.04667 187.4076,489.61531 M 192.24268,487.84706 L 198.10004,487.84706 C 197.879,487.0182 197.48298,486.3643 196.91199,485.8854 C 196.41465,485.46176 195.84366,485.24994 195.19898,485.24992 C 194.53588,485.24994 193.94647,485.47097 193.43072,485.91303 C 192.85972,486.37352 192.46371,487.0182 192.24268,487.84706 M 204.51386,483.7027 C 204.51386,483.00278 204.73489,482.4594 205.17696,482.07259 C 205.56376,481.72263 206.04266,481.54765 206.61366,481.54763 C 207.18466,481.54765 207.68198,481.72263 208.10563,482.07259 C 208.54769,482.42257 208.76872,482.88305 208.76873,483.45404 C 209.87388,482.21996 211.15403,481.6029 212.60916,481.60289 C 214.70895,481.6029 216.40354,482.48703 217.69291,484.25527 C 218.87173,485.87619 219.46115,487.80102 219.46116,490.02975 C 219.46115,492.1664 218.89936,493.94387 217.77579,495.36216 C 216.54168,496.96464 214.81947,497.76588 212.60916,497.76588 C 211.30139,497.76588 210.09491,497.39749 208.98976,496.66072 L 208.98976,501.74446 C 208.98975,502.40755 208.75951,502.9325 208.29903,503.31931 C 207.83854,503.72454 207.29517,503.92714 206.66892,503.92715 C 206.0795,503.92714 205.57296,503.72454 205.14933,503.31931 C 204.72568,502.91409 204.51386,502.32466 204.51386,501.55106 L 204.51386,483.7027 M 212.19472,486.10643 C 211.18166,486.10644 210.37121,486.49325 209.76337,487.26685 C 209.2292,487.94837 208.96213,488.79566 208.96213,489.80872 C 208.96213,490.82178 209.23842,491.67829 209.791,492.37822 C 210.38042,493.15183 211.18166,493.53864 212.19472,493.53863 C 213.1341,493.53864 213.88009,493.16104 214.43267,492.40584 C 214.91157,491.74275 215.15102,490.91388 215.15104,489.91923 C 215.15102,488.88775 214.90236,488.01284 214.40504,487.29448 C 213.85246,486.50245 213.11569,486.10644 212.19472,486.10643 M 228.58651,481.54763 C 229.10224,481.54765 229.73771,481.72263 230.49291,482.07259 C 231.156,482.38573 231.71779,482.74491 232.17828,483.15011 C 232.54666,482.08181 233.26501,481.54765 234.33335,481.54763 C 234.90434,481.54765 235.40166,481.75026 235.82532,482.15547 C 236.24895,482.56071 236.46077,483.12251 236.46079,483.84084 L 236.46079,496.30153 C 236.46077,496.78044 236.23974,497.14883 235.79769,497.4067 C 235.37403,497.66457 234.85828,497.79351 234.25047,497.79351 C 233.66103,497.79351 233.14529,497.66457 232.70324,497.4067 C 232.26116,497.14883 232.04013,496.78965 232.04015,496.32917 C 230.89814,497.28697 229.66404,497.76588 228.33785,497.76588 C 226.18278,497.76588 224.46979,496.91858 223.19885,495.224 C 222.03844,493.69521 221.45823,491.83485 221.45823,489.64294 C 221.45823,487.45105 222.04764,485.5999 223.22648,484.0895 C 224.53425,482.39494 226.32093,481.54765 228.58651,481.54763 M 228.94569,486.02353 C 227.93262,486.02355 227.13138,486.39193 226.54196,487.1287 C 226.02621,487.77339 225.76835,488.58384 225.76835,489.56006 C 225.76835,490.57312 226.04464,491.44805 226.59722,492.18481 C 227.20505,492.97685 228.01551,493.37286 229.02857,493.37286 C 229.98637,493.37286 230.75078,492.99527 231.32178,492.24007 C 231.83752,491.54013 232.09539,490.69285 232.09539,489.6982 C 232.09539,488.70357 231.81909,487.84707 231.26652,487.1287 C 230.71393,486.39193 229.94033,486.02355 228.94569,486.02353 M 240.63277,486.16169 C 240.02493,486.18011 239.54603,485.9775 239.19606,485.55385 C 238.88294,485.18547 238.72637,484.72499 238.72637,484.17239 C 238.72637,483.60141 238.88294,483.1133 239.19606,482.70805 C 239.50919,482.28443 239.93284,482.08181 240.46699,482.10022 L 242.01423,482.10022 C 242.01423,481.6029 242.00501,480.63589 241.98659,479.19917 C 241.98658,478.49926 242.21683,477.93746 242.67731,477.5138 C 243.08254,477.16385 243.58908,476.98886 244.19692,476.98885 C 244.74949,476.98886 245.22839,477.16385 245.63363,477.5138 C 246.05726,477.84536 246.26909,478.32427 246.26909,478.95051 L 246.26909,482.10022 L 248.06498,482.10022 C 248.76491,482.10023 249.32669,482.32126 249.75035,482.76331 C 250.11873,483.15014 250.30292,483.61983 250.30293,484.17239 C 250.30292,484.70657 250.11873,485.15784 249.75035,485.52621 C 249.36354,485.94987 248.82937,486.1617 248.14787,486.16169 L 246.49013,486.13406 L 246.49013,495.224 C 246.49012,495.94237 246.26909,496.49495 245.82703,496.88175 C 245.38496,497.26856 244.86001,497.46196 244.25218,497.46196 C 243.64434,497.46196 243.11937,497.28697 242.67731,496.93701 C 242.23526,496.56862 242.01423,496.0713 242.01423,495.44503 L 242.01423,486.13406 C 241.71951,486.13407 241.25903,486.14327 240.63277,486.16169 M 251.89333,479.00577 C 251.89333,478.3611 252.13278,477.84536 252.61169,477.45854 C 253.03533,477.10859 253.55107,476.93361 254.15891,476.93359 C 254.76674,476.93361 255.28249,477.1178 255.70613,477.48617 C 256.14819,477.85458 256.36923,478.37032 256.36923,479.03339 L 256.36923,482.76331 C 257.38229,481.93445 258.61638,481.52002 260.07152,481.52 C 261.56348,481.52002 262.83442,481.94366 263.88433,482.79094 C 265.04473,483.74876 265.62494,485.0197 265.62496,486.60375 L 265.62496,495.33452 C 265.62494,495.99763 265.41312,496.51336 264.98949,496.88175 C 264.56583,497.25013 264.0593,497.43433 263.46989,497.43433 C 262.89889,497.43433 262.40157,497.25934 261.97793,496.90938 C 261.55427,496.54099 261.34245,496.04367 261.34246,495.4174 L 261.34246,487.95757 C 261.34245,487.20239 261.05695,486.59455 260.48596,486.13406 C 259.98863,485.71042 259.38079,485.4986 258.66245,485.49858 C 258.03618,485.4986 257.51123,485.68279 257.08758,486.05117 C 256.60868,486.4564 256.36923,487.00898 256.36923,487.70891 L 256.36923,495.33452 C 256.36923,495.99763 256.14819,496.51336 255.70613,496.88175 C 255.26407,497.25013 254.72991,497.43433 254.10365,497.43433 C 253.51424,497.43433 252.99849,497.25013 252.55643,496.88175 C 252.11436,496.51336 251.89333,495.99763 251.89333,495.33452 L 251.89333,479.00577 M 272.09619,483.97899 L 274.44466,490.69284 L 277.04179,484.22765 C 277.61278,482.80938 278.46928,482.10023 279.61129,482.10022 C 280.12702,482.10023 280.55987,482.29363 280.90986,482.68042 C 281.27824,483.06724 281.46243,483.59219 281.46244,484.25527 C 281.46243,484.80788 281.33348,485.39729 281.07563,486.02353 L 274.44466,502.076 C 273.92892,503.32852 273.19215,503.95477 272.23434,503.95478 C 271.70017,503.95477 271.22128,503.74295 270.79763,503.31931 C 270.39241,502.91409 270.18979,502.42597 270.18979,501.85497 C 270.18979,501.5971 270.23584,501.34844 270.32794,501.10899 C 270.80684,499.81964 271.43309,498.20794 272.20671,496.2739 C 271.04629,493.36366 269.67405,489.87319 268.08999,485.80251 C 267.86895,485.23151 267.75844,484.70657 267.75844,484.22765 C 267.75844,483.56456 267.96106,483.03961 268.36628,482.65279 C 268.71624,482.28443 269.16752,482.10023 269.7201,482.10022 C 270.8621,482.10023 271.65413,482.72649 272.09619,483.97899" id="path1399"/>
    </g>
  </g>
</svg>